<?xml version="1.0" encoding="UTF-8"?>
<svg id="Layer_1" data-name="Layer 1" xmlns="http://www.w3.org/2000/svg" version="1.1" viewBox="0 0 800 800">
  <defs>
    <style>
      .cls-1 {
        fill: #000;
        font-family: Arial-BoldMT, Arial;
        font-size: 149px;
        font-weight: 700;
      }

      .cls-2 {
        fill: #101010;
        stroke-width: 0px;
      }
    </style>
  </defs>
  <g id="xxx-word">
    <path class="cls-2" d="M650,210h-150c-5.5,0-10-4.5-10-10V50c0-5.5,4.5-10,10-10s10,4.5,10,10v140h140c5.5,0,10,4.5,10,10s-4.5,10-10,10Z"/>
    <path class="cls-2" d="M650,309.7c-5.5,0-10-4.5-10-10v-95.5L495.9,60H200c-22.1,0-40,17.9-40,40v196.3c0,5.5-4.5,10-10,10s-10-4.5-10-10V100c0-33.1,26.9-60,60-60h300c2.7,0,5.2,1,7.1,2.9l150,150c1.9,1.9,2.9,4.4,2.9,7.1v99.7c0,5.5-4.5,10-10,10Z"/>
    <path class="cls-2" d="M600,760H200c-33.1,0-60-26.9-60-60v-150c0-5.5,4.5-10,10-10s10,4.5,10,10v150c0,22.1,17.9,40,40,40h400c22.1,0,40-17.9,40-40v-150c0-5.5,4.5-10,10-10s10,4.5,10,10v150c0,33.1-26.9,60-60,60Z"/>
    <path class="cls-2" d="M550,560H250c-5.5,0-10-4.5-10-10s4.5-10,10-10h300c5.5,0,10,4.5,10,10s-4.5,10-10,10Z"/>
    <path class="cls-2" d="M400,660h-150c-5.5,0-10-4.5-10-10s4.5-10,10-10h150c5.5,0,10,4.5,10,10s-4.5,10-10,10Z"/>
    <path class="cls-2" d="M650,560H150c-33.1,0-60-26.9-60-60h0v-153.7c0-33.1,26.9-60,60-60h.4l500,3.3c32.9.3,59.5,27.1,59.6,60v150.3c0,33.1-26.9,60-60,60h0ZM150,306.3c-22.1,0-40,17.9-40,40v153.7c0,22.1,17.9,40,40,40h500c22.1,0,40-17.9,40-40v-150.3c0-22-17.8-39.8-39.8-40l-500-3.3h-.2Z"/>
    <text class="cls-1" transform="translate(183.3 472)"><tspan x="0" y="0">ABCD</tspan></text>
  </g>
</svg>