<?xml version="1.0" encoding="UTF-8"?>
<svg id="Layer_1" xmlns="http://www.w3.org/2000/svg" xmlns:xlink="http://www.w3.org/1999/xlink" version="1.1" viewBox="0 0 508.1 143.3">
  <!-- Generator: Adobe Illustrator 29.1.0, SVG Export Plug-In . SVG Version: 2.1.0 Build 142)  -->
  <defs>
    <style>
      .st0 {
        fill: #0b4819;
      }

      .st1 {
        fill: #0c541e;
      }

      .st2 {
        fill: url(#radial-gradient);
      }

      .st3 {
        fill: #1a5c34;
      }

      .st4 {
        fill: #105c80;
      }

      .st5 {
        fill: #084010;
      }

      .st6 {
        fill: #fff;
      }

      .st7 {
        opacity: .6;
      }

      .st8 {
        fill: #13802d;
      }
    </style>
    <radialGradient id="radial-gradient" cx="-759.2" cy="78.8" fx="-759.2" fy="78.8" r="1.4" gradientTransform="translate(57803.3 6026.2) scale(76.1 -76.1)" gradientUnits="userSpaceOnUse">
      <stop offset="0" stop-color="#fff"/>
      <stop offset="1" stop-color="#007808"/>
    </radialGradient>
  </defs>
  <g id="watermark">
    <g>
      <g id="watermark1" data-name="watermark" class="st7">
        <g>
          <g>
            <g>
              <polygon class="st6" points="174.6 496.1 162.5 524.1 156.1 524.1 144 496.1 151 496.1 159.5 516.1 168.2 496.1 174.6 496.1"/>
              <path class="st6" d="M195.8,514.8h-16.3c.6,2.7,2.9,4.3,6.2,4.3s3.9-.7,5.4-2.1l3.3,3.6c-2,2.3-5,3.5-8.9,3.5-7.4,0-12.3-4.7-12.3-11.1s4.9-11.1,11.5-11.1,11.2,4.2,11.2,11.1c0,.5,0,1.2-.1,1.7M179.5,511.1h10.6c-.4-2.7-2.5-4.5-5.3-4.5s-4.9,1.7-5.3,4.5"/>
              <path class="st6" d="M198.5,513c0-6.5,5-11.1,12-11.1s8.1,2,9.6,5.5l-4.8,2.6c-1.2-2-2.9-3-4.8-3-3.2,0-5.6,2.2-5.6,6s2.5,6,5.6,6,3.7-.9,4.8-3l4.8,2.6c-1.6,3.4-5.1,5.4-9.6,5.4-7,0-12-4.6-12-11.1"/>
              <path class="st6" d="M237.9,522.7c-1.3.9-3.2,1.4-5.1,1.4-5.1,0-8-2.6-8-7.7v-8.8h-3.3v-4.8h3.3v-5.2h6.2v5.2h5.4v4.8h-5.4v8.7c0,1.8,1,2.8,2.7,2.8s1.8-.3,2.5-.8l1.7,4.4Z"/>
            </g>
            <path class="st6" d="M280.6,502.2v5.8c-.5,0-.9,0-1.4,0-3.4,0-5.7,1.9-5.7,6v10.1h-6.2v-21.5h6v2.8c1.5-2.1,4.1-3.2,7.4-3.2"/>
            <path class="st6" d="M282.4,520.8l2.2-4.9c2.4,1.7,5.9,2.9,9.2,2.9s5.4-1.3,5.4-3c0-5.2-16.3-1.6-16.3-12s3.8-8.7,11.8-8.7,7.1.8,9.7,2.5l-2,4.9c-2.6-1.5-5.3-2.2-7.8-2.2-3.8,0-5.3,1.4-5.3,3.2,0,5.2,16.3,1.6,16.3,11.9s-3.9,8.7-11.9,8.7c-4.4,0-8.9-1.3-11.4-3.2"/>
            <path class="st6" d="M330.6,514.8h-16.3c.6,2.7,2.9,4.3,6.2,4.3s3.9-.7,5.4-2.1l3.3,3.6c-2,2.3-5,3.5-8.9,3.5-7.4,0-12.3-4.7-12.3-11.1s4.9-11.1,11.5-11.1,11.2,4.2,11.2,11.1c0,.5,0,1.2-.1,1.7M314.3,511.1h10.6c-.4-2.7-2.5-4.5-5.3-4.5s-4.9,1.7-5.3,4.5"/>
            <path class="st6" d="M355.8,514.8h-16.3c.6,2.7,2.9,4.3,6.2,4.3s3.9-.7,5.4-2.1l3.3,3.6c-2,2.3-5,3.5-8.9,3.5-7.4,0-12.3-4.7-12.3-11.1s4.9-11.1,11.5-11.1,11.2,4.2,11.2,11.1c0,.5,0,1.2-.1,1.7M339.5,511.1h10.6c-.4-2.7-2.5-4.5-5.3-4.5s-4.9,1.7-5.3,4.5"/>
            <polygon class="st6" points="369.3 515.6 366.3 518.6 366.3 524.1 360.1 524.1 360.1 494.4 366.3 494.4 366.3 511.2 375.4 502.6 382.9 502.6 373.9 511.7 383.7 524.1 376.1 524.1 369.3 515.6"/>
            <path class="st6" d="M267.9,527h0l-6.2-6.2c-.9,1.1-2.1,2.1-3.3,2.8-.2.2-.4.3-.6.4l6.6,6.6c1,1,2.6,1,3.6,0,1-1,1-2.6,0-3.6"/>
            <path class="st6" d="M253.4,500.6c.5-.4,1.1-.6,1.7-.6s.2,0,.3,0c-.5-.3-1-.5-1.7-.5s-1.6.4-2.1,1c-.1,0-.2,0-.3,0,0-.2.1-.4.1-.6,0-.5-.3-.9-.8-1.1.2.3.3.6.3,1s0,.5-.2.7c-6.1.4-11,5.5-11,11.8s5.3,11.8,11.8,11.8,11.8-5.3,11.8-11.8c0-5.9-4.4-10.8-10-11.7M249.1,503.7c.9,0,1.8.2,2.6.7.8-.5,1.8-.8,2.8-.8,1.5,0,2.9.7,3.9,1.8-.9-.8-2.2-1.3-3.5-1.3s-1.9.3-2.7.7c-.2,0-.3.2-.5.3-.1-.1-.3-.2-.4-.3-.8-.5-1.7-.7-2.7-.7s-1.3.1-1.9.3c.7-.4,1.6-.6,2.5-.6M257.3,513.4c.2.7.4,1.4.4,2.1,0,3.3-2.7,6-6,6s-6-2.7-6-6,.1-1.5.4-2.1c-1.4-.8-2.3-2.3-2.3-4,0-2.6,2.1-4.7,4.7-4.7s2.3.5,3.2,1.2c.8-.8,2-1.2,3.2-1.2,2.6,0,4.7,2.1,4.7,4.7,0,1.7-.9,3.2-2.3,4"/>
            <path class="st6" d="M257.1,508.9c0,1.1-.9,2-2,2s-2-.9-2-2,.9-2,2-2,.4,0,.6.1c0,.1,0,.3,0,.4,0,.6.5,1.1,1.1,1.1s.2,0,.3,0c0,.1,0,.3,0,.4"/>
            <path class="st6" d="M249.7,508.9c0,.8-.7,1.5-1.5,1.5s-1.5-.7-1.5-1.5.7-1.5,1.5-1.5.3,0,.5,0c0,.1,0,.2,0,.3,0,.4.4.8.8.8s.2,0,.2,0c0,0,0,.2,0,.3"/>
            <g>
              <g>
                <rect class="st6" x="238" y="510.6" width="1.3" height="1.3"/>
                <rect class="st6" x="264" y="510.6" width="1.3" height="1.3"/>
                <path class="st6" d="M264.8,511.1h-.3c0-7.1-5.8-12.8-12.8-12.8s-12.8,5.8-12.8,12.8h-.3c0-3.5,1.4-6.8,3.8-9.3,2.5-2.5,5.8-3.8,9.3-3.8s6.8,1.4,9.3,3.8c2.5,2.5,3.8,5.8,3.8,9.3"/>
              </g>
              <rect class="st6" x="251" y="497.5" width="1.3" height="1.3"/>
              <rect class="st6" x="242.5" y="498" width="18.4" height=".3"/>
              <path class="st6" d="M243,498.2c0,.2-.2.4-.4.4s-.4-.2-.4-.4.2-.4.4-.4.4.2.4.4"/>
              <path class="st6" d="M261.3,498.2c0,.2-.2.4-.4.4s-.4-.2-.4-.4.2-.4.4-.4.4.2.4.4"/>
            </g>
          </g>
          <path class="st6" d="M393.6,522.7c0,3.4-5.1,3.4-5.1,0s5.1-3.4,5.1,0Z"/>
          <g>
            <g>
              <path class="st6" d="M61.3,507.8l3.9,13.3,4-13.3h4.8l-6.1,17.7h-5.1l-1.8-5.2-1.6-5.9-1.6,5.9-1.8,5.2h-5.1l-6.2-17.7h4.9l4,13.3,3.8-13.3h3.8Z"/>
              <path class="st6" d="M93.9,507.8l3.9,13.3,4-13.3h4.8l-6.1,17.7h-5.1l-1.8-5.2-1.6-5.9-1.6,5.9-1.8,5.2h-5.1l-6.2-17.7h4.9l4,13.3,3.8-13.3h3.8Z"/>
              <path class="st6" d="M126.5,507.8l3.9,13.3,4-13.3h4.8l-6.1,17.7h-5.1l-1.8-5.2-1.6-5.9-1.6,5.9-1.8,5.2h-5.1l-6.2-17.7h4.9l4,13.3,3.8-13.3h3.8Z"/>
            </g>
            <path class="st6" d="M146.6,523c0,3.4-5.1,3.4-5.1,0s5.1-3.4,5.1,0Z"/>
            <path class="st6" d="M411.8,522.7c-2,2-4.2,2.8-6.8,2.8-5.1,0-9.4-3.1-9.4-9.3s4.3-9.3,9.4-9.3,4.4.7,6.4,2.6l-2.8,2.9c-1-.9-2.3-1.4-3.5-1.4-2.9,0-5.1,2.1-5.1,5.2s2.3,5.1,5,5.1,2.8-.4,3.9-1.5l2.9,2.9Z"/>
            <path class="st6" d="M431.6,516.3c0,5.1-3.5,9.2-9.2,9.2s-9.1-4.1-9.1-9.2,3.5-9.2,9.1-9.2,9.2,4.1,9.2,9.2ZM417.6,516.3c0,2.7,1.6,5.2,4.8,5.2s4.8-2.5,4.8-5.2-1.9-5.2-4.8-5.2-4.8,2.6-4.8,5.2Z"/>
            <path class="st6" d="M446.3,525.5v-9.4c0-2.3-1.2-4.4-3.6-4.4s-3.8,2.1-3.8,4.4v9.4h-4.4v-17.6h4l.3,2.1c.9-1.8,3-2.4,4.6-2.4s4.2.9,5.2,3.3c1.6-2.5,3.6-3.2,5.9-3.2,5,0,7.5,3.1,7.5,8.4v9.5h-4.4v-9.5c0-2.3-1-4.3-3.3-4.3s-3.8,2-3.8,4.4v9.4h-4.4Z"/>
          </g>
        </g>
      </g>
      <g class="st7">
        <g>
          <path class="st6" d="M462.5,431.1c0-2.7-2.1-4.6-4.8-4.7-2,0-1.8.3-1.8-1.9,0-2.4,0-4.8,0-7.2,0-.8-.2-1.5-.8-2.1-5.1-5.8-10.2-11.6-15.3-17.4-.3-.3-.6-.5-.9-.8h-40.6c-1.7.6-2.5,1.9-2.5,3.7,0,8.2,0,16.3,0,24.5,0,1.2,0,1.3-1.2,1.2-3.3-.2-5.5,2.1-5.4,5.4,0,7.6,0,15.1,0,22.7,0,3.4,1.9,5.3,5.3,5.3q1.3,0,1.3,1.3c0,4.8,0,9.7,0,14.5,0,2.6,1.3,3.9,3.8,3.9,17.4,0,34.9,0,52.3,0,2.5,0,3.8-1.3,3.8-3.8,0-4.9,0-9.8,0-14.7,0-1.1,0-1.1,1.1-1.1.6,0,1.2,0,1.8-.1,2.2-.5,3.7-2.3,3.7-4.5,0-8.1,0-16.1,0-24.2ZM400.5,400.3c11.6,0,23.2,0,34.9,0,1.2,0,1.2,0,1.2,1.2,0,4.9,0,9.8,0,14.7,0,1.8.5,2.3,2.3,2.3,4.2,0,8.3,0,12.5,0,1,0,1,0,1,1.1,0,1.9,0,3.9,0,5.8,0,1,0,1.1-1.1,1.1-8.5,0-17,0-25.4,0h-25.4c-1.2,0-1.2,0-1.2-1.2,0-7.9,0-15.8,0-23.7,0-1.2,0-1.2,1.2-1.2ZM451.2,475.2c-8.5,0-16.9,0-25.4,0s-16.9,0-25.3,0c-1.2,0-1.2,0-1.2-1.3,0-4.3,0-8.7,0-13,0-1,0-1.1,1-1.1,17,0,34,0,51,0,1,0,1.1,0,1.1,1.1,0,4.3,0,8.7,0,13,0,1.2,0,1.2-1.2,1.2Z"/>
          <g>
            <rect class="st6" x="422" y="400" width="3.8" height="2.3"/>
            <rect class="st6" x="418.2" y="402.3" width="3.8" height="2.3"/>
            <rect class="st6" x="422" y="404.6" width="3.8" height="2.3"/>
            <rect class="st6" x="418.2" y="406.9" width="3.8" height="2.3"/>
            <rect class="st6" x="422" y="409.2" width="3.8" height="2.3"/>
            <rect class="st6" x="418.2" y="411.5" width="3.8" height="2.3"/>
            <rect class="st6" x="422" y="413.8" width="3.8" height="2.3"/>
            <rect class="st6" x="418.2" y="416.1" width="3.8" height="2.3"/>
            <rect class="st6" x="422" y="418.4" width="3.8" height="2.3"/>
            <rect class="st6" x="418.2" y="420.7" width="3.8" height="2.3"/>
            <rect class="st6" x="422" y="423" width="3.8" height="2.3"/>
            <rect class="st6" x="418.2" y="425.3" width="3.8" height="2.3"/>
          </g>
        </g>
        <path class="st6" d="M117.7,431.1c0-2.7-2.1-4.6-4.8-4.7-2,0-1.8.3-1.8-1.9,0-2.4,0-4.8,0-7.2,0-.8-.2-1.5-.8-2.1-5.1-5.8-10.2-11.6-15.3-17.4-.3-.3-.6-.5-.9-.8h-40.6c-1.7.6-2.5,1.9-2.5,3.7,0,8.2,0,16.3,0,24.5,0,1.2,0,1.3-1.2,1.2-3.3-.2-5.5,2.1-5.4,5.4,0,7.6,0,15.1,0,22.7,0,3.4,1.9,5.3,5.3,5.3q1.3,0,1.3,1.3c0,4.8,0,9.7,0,14.5,0,2.6,1.3,3.9,3.9,3.9,17.4,0,34.9,0,52.3,0,2.5,0,3.8-1.3,3.8-3.8,0-4.9,0-9.8,0-14.7,0-1.1,0-1.1,1.1-1.1.6,0,1.2,0,1.8-.1,2.2-.5,3.7-2.3,3.7-4.5,0-8.1,0-16.1,0-24.2ZM55.8,400.3c11.6,0,23.2,0,34.9,0,1.2,0,1.2,0,1.2,1.2,0,4.9,0,9.8,0,14.7,0,1.8.5,2.3,2.3,2.3,4.2,0,8.3,0,12.5,0,1,0,1,0,1,1.1,0,1.9,0,3.9,0,5.8,0,1,0,1.1-1.1,1.1-8.5,0-17,0-25.4,0h-25.4c-1.2,0-1.2,0-1.2-1.2,0-7.9,0-15.8,0-23.7,0-1.2,0-1.2,1.2-1.2ZM106.5,475.2c-8.5,0-16.9,0-25.4,0s-16.9,0-25.3,0c-1.2,0-1.2,0-1.2-1.3,0-4.3,0-8.7,0-13,0-1,0-1.1,1-1.1,17,0,34,0,51,0,1,0,1.1,0,1.1,1.1,0,4.3,0,8.7,0,13,0,1.2,0,1.2-1.2,1.2Z"/>
        <g>
          <path class="st6" d="M57.1,451.5v-17.2h6.1c.8,0,1.6.1,2.3.4s1.3.6,1.9,1.1c.5.5.9,1.1,1.2,1.7.3.7.5,1.4.5,2.2s-.2,1.6-.5,2.2-.7,1.2-1.2,1.7c-.5.5-1.1.9-1.9,1.1-.7.3-1.5.4-2.3.4h-2.8v6.3h-3.2ZM63.2,442.1c.8,0,1.5-.2,1.9-.7.4-.5.6-1,.6-1.7s0-.6-.2-.9c-.1-.3-.3-.5-.5-.8-.2-.2-.5-.4-.8-.5-.3-.1-.7-.2-1.1-.2h-2.9v4.7h2.9Z"/>
          <path class="st6" d="M71.3,434.3h3.8l6.9,11.5h.2l-.2-3.3v-8.2h3.2v17.2h-3.4l-7.3-12.2h-.2l.2,3.3v8.9h-3.2v-17.2h0Z"/>
          <path class="st6" d="M96.6,442h8.4c0,.2,0,.4.1.7,0,.3,0,.5,0,.8,0,1.1-.2,2.1-.5,3.1-.3,1-.9,1.8-1.6,2.6-.8.8-1.7,1.4-2.8,1.9-1.1.4-2.3.7-3.7.7s-2.4-.2-3.5-.7c-1.1-.4-2.1-1.1-2.9-1.9-.8-.8-1.5-1.7-1.9-2.8-.5-1.1-.7-2.3-.7-3.6s.2-2.5.7-3.6,1.1-2,1.9-2.8,1.8-1.4,2.9-1.9,2.3-.7,3.5-.7,2.6.2,3.7.7c1.1.5,2,1.1,2.8,2l-2.2,2.2c-.6-.6-1.2-1-1.9-1.4s-1.5-.5-2.5-.5-1.5.1-2.2.4c-.7.3-1.3.7-1.9,1.2-.5.5-.9,1.1-1.3,1.9-.3.7-.5,1.5-.5,2.4s.2,1.7.5,2.4c.3.7.7,1.3,1.3,1.9s1.2.9,1.9,1.2c.7.3,1.5.4,2.3.4s1.7-.1,2.3-.4c.6-.3,1.2-.6,1.6-1,.3-.3.6-.7.8-1.1s.4-.9.5-1.5h-5.4v-2.8Z"/>
        </g>
        <path class="st6" d="M196.9,431.1c0-2.7-2.1-4.6-4.8-4.7-2,0-1.8.3-1.8-1.9,0-2.4,0-4.8,0-7.2,0-.8-.2-1.5-.8-2.1-5.1-5.8-10.2-11.6-15.3-17.4-.3-.3-.6-.5-.9-.8h-40.6c-1.7.6-2.5,1.9-2.5,3.7,0,8.2,0,16.3,0,24.5,0,1.2,0,1.3-1.2,1.2-3.3-.2-5.5,2.1-5.4,5.4,0,7.6,0,15.1,0,22.7,0,3.4,1.9,5.3,5.3,5.3q1.3,0,1.3,1.3c0,4.8,0,9.7,0,14.5,0,2.6,1.3,3.9,3.9,3.9,17.4,0,34.9,0,52.3,0,2.5,0,3.8-1.3,3.8-3.8,0-4.9,0-9.8,0-14.7,0-1.1,0-1.1,1.1-1.1.6,0,1.2,0,1.8-.1,2.2-.5,3.7-2.3,3.7-4.5,0-8.1,0-16.1,0-24.2ZM135,400.3c11.6,0,23.2,0,34.9,0,1.2,0,1.2,0,1.2,1.2,0,4.9,0,9.8,0,14.7,0,1.8.5,2.3,2.3,2.3,4.2,0,8.3,0,12.5,0,1,0,1,0,1,1.1,0,1.9,0,3.9,0,5.8,0,1,0,1.1-1.1,1.1-8.5,0-17,0-25.4,0h-25.4c-1.2,0-1.2,0-1.2-1.2,0-7.9,0-15.8,0-23.7,0-1.2,0-1.2,1.2-1.2ZM185.7,475.2c-8.5,0-16.9,0-25.4,0s-16.9,0-25.3,0c-1.2,0-1.2,0-1.2-1.3,0-4.3,0-8.7,0-13,0-1,0-1.1,1-1.1,17,0,34,0,51,0,1,0,1.1,0,1.1,1.1,0,4.3,0,8.7,0,13,0,1.2,0,1.2-1.2,1.2Z"/>
        <g>
          <path class="st6" d="M155.8,434.3h3.7l6.5,17.2h-3.6l-1.4-4.1h-6.6l-1.4,4.1h-3.6l6.5-17.2ZM159.9,444.4l-1.5-4.3-.6-2.1h-.2l-.6,2.1-1.5,4.3h4.5Z"/>
          <path class="st6" d="M169.3,438.1c-.3,0-.5,0-.8-.2-.2-.1-.5-.2-.6-.4-.2-.2-.3-.4-.4-.6-.1-.2-.2-.5-.2-.8s0-.6.2-.8c.1-.2.2-.5.4-.6.2-.2.4-.3.6-.4.2-.1.5-.2.8-.2.6,0,1,.2,1.4.6.4.4.6.9.6,1.4s-.2,1-.6,1.4c-.4.4-.9.6-1.4.6ZM167.7,451.5v-11.8h3.1v11.8h-3.1Z"/>
        </g>
        <path class="st6" d="M277.5,431.1c0-2.7-2.1-4.6-4.8-4.7-2,0-1.8.3-1.8-1.9,0-2.4,0-4.8,0-7.2,0-.8-.2-1.5-.8-2.1-5.1-5.8-10.2-11.6-15.3-17.4-.3-.3-.6-.5-.9-.8h-40.6c-1.7.6-2.5,1.9-2.5,3.7,0,8.2,0,16.3,0,24.5,0,1.2,0,1.3-1.2,1.2-3.3-.2-5.5,2.1-5.4,5.4,0,7.6,0,15.1,0,22.7,0,3.4,1.9,5.3,5.3,5.3q1.3,0,1.3,1.3c0,4.8,0,9.7,0,14.5,0,2.6,1.3,3.9,3.9,3.9,17.4,0,34.9,0,52.3,0,2.5,0,3.8-1.3,3.8-3.8,0-4.9,0-9.8,0-14.7,0-1.1,0-1.1,1.1-1.1.6,0,1.2,0,1.8-.1,2.2-.5,3.7-2.3,3.7-4.5,0-8.1,0-16.1,0-24.2ZM215.6,400.3c11.6,0,23.2,0,34.9,0,1.2,0,1.2,0,1.2,1.2,0,4.9,0,9.8,0,14.7,0,1.8.5,2.3,2.3,2.3,4.2,0,8.3,0,12.5,0,1,0,1,0,1,1.1,0,1.9,0,3.9,0,5.8,0,1,0,1.1-1.1,1.1-8.5,0-17,0-25.4,0h-25.4c-1.2,0-1.2,0-1.2-1.2,0-7.9,0-15.8,0-23.7,0-1.2,0-1.2,1.2-1.2ZM266.3,475.2c-8.5,0-16.9,0-25.4,0s-16.9,0-25.3,0c-1.2,0-1.2,0-1.2-1.3,0-4.3,0-8.7,0-13,0-1,0-1.1,1-1.1,17,0,34,0,51,0,1,0,1.1,0,1.1,1.1,0,4.3,0,8.7,0,13,0,1.2,0,1.2-1.2,1.2Z"/>
        <g>
          <path class="st6" d="M223.8,451.8c-.7,0-1.4-.1-2.1-.3s-1.3-.5-1.8-.9c-.6-.4-1-.9-1.5-1.5-.4-.6-.7-1.3-1-2.1l3-1.2c.2.9.6,1.6,1.2,2.1s1.3.9,2.2.9.7,0,1-.1c.3,0,.6-.2.8-.4.2-.2.4-.4.6-.6.1-.3.2-.6.2-.9s0-.6-.2-.9c-.1-.3-.3-.5-.6-.7-.3-.2-.6-.4-1-.6-.4-.2-.9-.4-1.6-.6l-1.1-.4c-.5-.2-.9-.4-1.4-.6-.5-.3-.9-.6-1.3-1-.4-.4-.7-.8-.9-1.4-.2-.5-.4-1.1-.4-1.8s.1-1.3.4-1.9.6-1.1,1.1-1.5c.5-.4,1.1-.8,1.8-1s1.4-.4,2.3-.4,1.6.1,2.2.3,1.2.5,1.6.9c.4.4.8.8,1.1,1.2.3.4.5.8.6,1.2l-2.9,1.2c-.2-.5-.5-.9-.9-1.3-.4-.4-1-.6-1.7-.6s-1.3.2-1.8.5c-.5.3-.7.8-.7,1.3s.2.9.7,1.3c.4.4,1.2.7,2.1,1l1.1.4c.7.2,1.3.5,1.9.8.6.3,1.1.7,1.5,1.1.4.4.7.9.9,1.5.2.6.3,1.2.3,1.9s-.2,1.7-.5,2.3c-.4.6-.8,1.2-1.4,1.6-.6.4-1.2.7-1.9.9-.7.2-1.4.3-2.1.3Z"/>
          <path class="st6" d="M230.7,434.3h3.5l3.6,10.3.6,2.2h.2l.7-2.2,3.7-10.3h3.5l-6.3,17.2h-3.4l-6.1-17.2Z"/>
          <path class="st6" d="M255.9,442h8.4c0,.2,0,.4.1.7,0,.3,0,.5,0,.8,0,1.1-.2,2.1-.5,3.1-.3,1-.9,1.8-1.6,2.6-.8.8-1.7,1.4-2.8,1.9s-2.3.7-3.7.7-2.4-.2-3.5-.7c-1.1-.4-2.1-1.1-2.9-1.9-.8-.8-1.5-1.7-1.9-2.8-.5-1.1-.7-2.3-.7-3.6s.2-2.5.7-3.6c.5-1.1,1.1-2,1.9-2.8s1.8-1.4,2.9-1.9c1.1-.4,2.3-.7,3.5-.7s2.6.2,3.7.7c1.1.5,2,1.1,2.8,2l-2.2,2.2c-.6-.6-1.2-1-1.9-1.4-.7-.3-1.5-.5-2.5-.5s-1.5.1-2.2.4c-.7.3-1.3.7-1.8,1.2-.5.5-.9,1.1-1.3,1.9-.3.7-.5,1.5-.5,2.4s.2,1.7.5,2.4c.3.7.7,1.3,1.3,1.9s1.2.9,1.9,1.2c.7.3,1.5.4,2.3.4s1.7-.1,2.3-.4,1.2-.6,1.6-1c.3-.3.6-.7.8-1.1.2-.4.4-.9.5-1.5h-5.4v-2.8Z"/>
        </g>
        <path class="st6" d="M356.5,431.1c0-2.7-2.1-4.6-4.8-4.7-2,0-1.8.3-1.8-1.9,0-2.4,0-4.8,0-7.2,0-.8-.2-1.5-.8-2.1-5.1-5.8-10.2-11.6-15.3-17.4-.3-.3-.6-.5-.9-.8h-40.6c-1.7.6-2.5,1.9-2.5,3.7,0,8.2,0,16.3,0,24.5,0,1.2,0,1.3-1.2,1.2-3.3-.2-5.5,2.1-5.4,5.4,0,7.6,0,15.1,0,22.7,0,3.4,1.9,5.3,5.3,5.3q1.3,0,1.3,1.3c0,4.8,0,9.7,0,14.5,0,2.6,1.3,3.9,3.8,3.9,17.4,0,34.9,0,52.3,0,2.5,0,3.8-1.3,3.8-3.8,0-4.9,0-9.8,0-14.7,0-1.1,0-1.1,1.1-1.1.6,0,1.2,0,1.8-.1,2.2-.5,3.7-2.3,3.7-4.5,0-8.1,0-16.1,0-24.2ZM294.5,400.3c11.6,0,23.2,0,34.9,0,1.2,0,1.2,0,1.2,1.2,0,4.9,0,9.8,0,14.7,0,1.8.5,2.3,2.3,2.3,4.2,0,8.3,0,12.5,0,1,0,1,0,1,1.1,0,1.9,0,3.9,0,5.8,0,1,0,1.1-1.1,1.1-8.5,0-17,0-25.4,0h-25.4c-1.2,0-1.2,0-1.2-1.2,0-7.9,0-15.8,0-23.7,0-1.2,0-1.2,1.2-1.2ZM345.2,475.2c-8.5,0-16.9,0-25.4,0s-16.9,0-25.3,0c-1.2,0-1.2,0-1.2-1.3,0-4.3,0-8.7,0-13,0-1,0-1.1,1-1.1,17,0,34,0,51,0,1,0,1.1,0,1.1,1.1,0,4.3,0,8.7,0,13,0,1.2,0,1.2-1.2,1.2Z"/>
        <g>
          <path class="st6" d="M303.5,437.3v4h6.9v3.1h-6.9v4h7.7v3.1h-10.9v-17.2h10.9v3.1h-7.7Z"/>
          <path class="st6" d="M314.1,451.5v-17.2h6.1c.8,0,1.6.1,2.3.4.7.3,1.3.6,1.9,1.1.5.5.9,1.1,1.2,1.7.3.7.5,1.4.5,2.2s-.2,1.6-.5,2.2c-.3.7-.7,1.2-1.2,1.7-.5.5-1.1.9-1.9,1.1-.7.3-1.5.4-2.3.4h-2.8v6.3h-3.2ZM320.2,442.1c.8,0,1.5-.2,1.9-.7s.6-1,.6-1.7,0-.6-.2-.9c-.1-.3-.3-.5-.5-.8-.2-.2-.5-.4-.8-.5-.3-.1-.7-.2-1.1-.2h-2.9v4.7h2.9Z"/>
          <path class="st6" d="M333.6,451.8c-.7,0-1.4-.1-2.1-.3s-1.3-.5-1.8-.9c-.6-.4-1-.9-1.5-1.5-.4-.6-.7-1.3-1-2.1l3-1.2c.2.9.6,1.6,1.2,2.1.6.6,1.3.9,2.2.9s.7,0,1-.1c.3,0,.6-.2.8-.4.2-.2.4-.4.6-.6.1-.3.2-.6.2-.9s0-.6-.2-.9c-.1-.3-.3-.5-.6-.7-.3-.2-.6-.4-1-.6s-.9-.4-1.6-.6l-1.1-.4c-.5-.2-.9-.4-1.4-.6-.5-.3-.9-.6-1.3-1-.4-.4-.7-.8-.9-1.4-.2-.5-.4-1.1-.4-1.8s.1-1.3.4-1.9.6-1.1,1.1-1.5c.5-.4,1.1-.8,1.8-1s1.4-.4,2.3-.4,1.6.1,2.2.3c.6.2,1.2.5,1.6.9.4.4.8.8,1.1,1.2.3.4.5.8.6,1.2l-2.9,1.2c-.2-.5-.5-.9-.9-1.3s-1-.6-1.7-.6-1.3.2-1.8.5c-.5.3-.7.8-.7,1.3s.2.9.7,1.3c.4.4,1.2.7,2.1,1l1.1.4c.7.2,1.3.5,1.9.8.6.3,1.1.7,1.5,1.1.4.4.7.9.9,1.5s.3,1.2.3,1.9-.2,1.7-.5,2.3-.8,1.2-1.4,1.6c-.6.4-1.2.7-1.9.9-.7.2-1.4.3-2.1.3Z"/>
        </g>
        <g>
          <path class="st6" d="M408.9,448.2l8.7-10.9h-8.3v-3.1h12.1v3.3l-8.6,10.9h8.7v3.1h-12.6v-3.3h0Z"/>
          <path class="st6" d="M424.2,434.3h3.2v17.2h-3.2v-17.2Z"/>
          <path class="st6" d="M430.9,451.5v-17.2h6.1c.8,0,1.6.1,2.3.4.7.3,1.3.6,1.9,1.1s.9,1.1,1.2,1.7c.3.7.5,1.4.5,2.2s-.2,1.6-.5,2.2c-.3.7-.7,1.2-1.2,1.7s-1.1.9-1.9,1.1c-.7.3-1.5.4-2.3.4h-2.8v6.3h-3.2ZM437,442.1c.8,0,1.5-.2,1.9-.7.4-.5.6-1,.6-1.7s0-.6-.2-.9c-.1-.3-.3-.5-.5-.8-.2-.2-.5-.4-.8-.5-.3-.1-.7-.2-1.1-.2h-2.9v4.7h2.9Z"/>
        </g>
      </g>
      <g class="st7">
        <path class="st6" d="M362.6,435.4h19.7v4.9h-19.7v-4.9ZM362.6,443.8h19.7v4.9h-19.7v-4.9Z"/>
      </g>
    </g>
    <g class="st7">
      <path class="st6" d="M50.5,534.6h3.5c2.8,0,4.6,1.8,4.6,4.3s-1.9,4.3-4.6,4.3h-3.5v-8.6ZM53.9,542.4c2.3,0,3.8-1.4,3.8-3.5s-1.5-3.5-3.8-3.5h-2.5v7h2.5Z"/>
      <path class="st6" d="M68.7,538.9c0-2.5,1.9-4.4,4.5-4.4s4.5,1.9,4.5,4.4-1.9,4.4-4.5,4.4-4.5-1.9-4.5-4.4ZM76.8,538.9c0-2-1.5-3.6-3.6-3.6s-3.6,1.5-3.6,3.6,1.5,3.6,3.6,3.6,3.6-1.5,3.6-3.6Z"/>
      <path class="st6" d="M100.2,534.6l-2.9,8.6h-1l-2.5-7.3-2.5,7.3h-.9l-2.9-8.6h.9l2.5,7.4,2.6-7.4h.8l2.5,7.4,2.5-7.4h.9Z"/>
      <path class="st6" d="M117.9,534.6v8.6h-.7l-5.5-7v7h-.9v-8.6h.7l5.5,7v-7h.9Z"/>
      <path class="st6" d="M129.6,534.6h.9v7.8h4.8v.8h-5.7v-8.6Z"/>
      <path class="st6" d="M144.8,538.9c0-2.5,1.9-4.4,4.5-4.4s4.5,1.9,4.5,4.4-1.9,4.4-4.5,4.4-4.5-1.9-4.5-4.4ZM152.9,538.9c0-2-1.5-3.6-3.6-3.6s-3.6,1.5-3.6,3.6,1.5,3.6,3.6,3.6,3.6-1.5,3.6-3.6Z"/>
      <path class="st6" d="M170,540.9h-4.8l-1,2.3h-.9l3.9-8.6h.9l3.9,8.6h-1l-1-2.3ZM169.6,540.2l-2.1-4.6-2.1,4.6h4.1Z"/>
      <path class="st6" d="M182.2,534.6h3.5c2.8,0,4.6,1.8,4.6,4.3s-1.9,4.3-4.6,4.3h-3.5v-8.6ZM185.7,542.4c2.3,0,3.8-1.4,3.8-3.5s-1.5-3.5-3.8-3.5h-2.5v7h2.5Z"/>
      <path class="st6" d="M218.7,540.9h-4.8l-1,2.3h-.9l3.9-8.6h.9l3.9,8.6h-1l-1-2.3ZM218.4,540.2l-2.1-4.6-2.1,4.6h4.1Z"/>
      <path class="st6" d="M231,534.6h.9v7.8h4.8v.8h-5.7v-8.6Z"/>
      <path class="st6" d="M247.1,534.6h.9v7.8h4.8v.8h-5.7v-8.6Z"/>
      <path class="st6" d="M276.2,535.4v3.4h4.4v.8h-4.4v3.6h-.9v-8.6h5.9v.8h-5Z"/>
      <path class="st6" d="M292,534.6h.9v8.6h-.9v-8.6Z"/>
      <path class="st6" d="M304.5,534.6h.9v7.8h4.8v.8h-5.7v-8.6Z"/>
      <path class="st6" d="M326.7,542.4v.8h-6.1v-8.6h5.9v.8h-5v3.1h4.4v.8h-4.4v3.2h5.2Z"/>
      <path class="st6" d="M350.7,535.4v3.4h4.4v.8h-4.4v3.6h-.9v-8.6h5.9v.8h-5Z"/>
      <path class="st6" d="M365.6,538.9c0-2.5,1.9-4.4,4.5-4.4s4.5,1.9,4.5,4.4-1.9,4.4-4.5,4.4-4.5-1.9-4.5-4.4ZM373.7,538.9c0-2-1.5-3.6-3.6-3.6s-3.6,1.5-3.6,3.6,1.5,3.6,3.6,3.6,3.6-1.5,3.6-3.6Z"/>
      <path class="st6" d="M391.4,543.2l-2-2.8c-.2,0-.4,0-.7,0h-2.3v2.7h-.9v-8.6h3.2c2.2,0,3.5,1.1,3.5,2.9s-.7,2.3-2,2.7l2.1,2.9h-1ZM391.4,537.6c0-1.4-.9-2.2-2.6-2.2h-2.3v4.3h2.3c1.7,0,2.6-.8,2.6-2.1Z"/>
      <path class="st6" d="M412.2,534.6v8.6h-.9v-6.9l-3.4,5.8h-.4l-3.4-5.7v6.8h-.9v-8.6h.7l3.7,6.4,3.7-6.4h.7Z"/>
      <path class="st6" d="M429.3,540.9h-4.8l-1,2.3h-.9l3.9-8.6h.9l3.9,8.6h-1l-1-2.3ZM428.9,540.2l-2.1-4.6-2.1,4.6h4.1Z"/>
      <path class="st6" d="M442.8,535.4h-3v-.8h6.9v.8h-3v7.8h-.9v-7.8h0Z"/>
      <path class="st6" d="M456.1,542.2l.4-.7c.6.6,1.7,1,2.8,1,1.6,0,2.3-.7,2.3-1.5,0-2.4-5.3-.9-5.3-4.1s1-2.4,3.2-2.4,2,.3,2.7.8l-.3.7c-.7-.5-1.6-.7-2.4-.7-1.6,0-2.3.7-2.3,1.6,0,2.4,5.3.9,5.3,4.1s-1,2.3-3.2,2.3c-1.3,0-2.6-.5-3.2-1.1Z"/>
    </g>
  </g>
  <g>
    <path class="st0" d="M4.6,32.1V15.8l10.9,3.8v15.1l-10.9-2.6Z"/>
    <path class="st0" d="M13.4,98.8v-60.4l10.4,2.2v56.1l-10.4,2.1Z"/>
    <path class="st4" d="M64.3,15.8l-26.8,30.7v13.1L77.3,14.8l62.9-4.9L47.7,106.3l12.3.6L127.2,38.3v64.9l-7.5,7,18.9,1v18l-59.4-4.6,30.3-29.4v-14.5l-43.3,42.8-51.8-4L97.5,30.3l-13.7.7L23.8,96.7v-56.1l5.7-6.7-14,.8v-15.1l48.8-3.8Z"/>
    <path class="st0" d="M13.4,38.4l6-7.3,10.1,2.7-5.7,6.7-10.4-2.2Z"/>
    <path class="st5" d="M28,44.7l9.6,1.8v13.1l-9.6-.8v-14.1Z"/>
    <path class="st1" d="M38.7,109.2l8.9-2.9,12.3.6-8.1,3-13.1-.8Z"/>
    <path class="st3" d="M56.5,11.4l7.8,4.4-26.8,30.7-9.6-1.8L56.5,11.4Z"/>
    <path class="st0" d="M28,58.8L70.4,10.3l6.9,4.5-39.7,44.8-9.6-.8Z"/>
    <path class="st3" d="M77.4,27.8l6.4,3.2L23.8,96.7l-10.4,2.1L77.4,27.8Z"/>
    <path class="st0" d="M3.5,123.4L92.1,26.9l5.4,3.4L14.4,119.6l-11,3.7Z"/>
    <path class="st3" d="M105.1,81.8l4.5-1-43.3,42.8-7.7,4.4,46.5-46.2Z"/>
    <path class="st0" d="M105.1,97.5v-15.7l4.5-1v14.5l-4.5,2.2Z"/>
    <path class="st0" d="M72.5,129.2l32.6-31.7,4.5-2.2-30.3,29.4-6.8,4.6Z"/>
    <path class="st8" d="M124.2,106.2l-8.1,7.6,3.6-3.6,7.5-7-3,3Z"/>
    <path class="st0" d="M51.9,110L124.2,35.5l3,2.8L60,107l-8.1,3Z"/>
    <path class="st5" d="M124.2,35.5l3,2.8v64.9l-3,3V35.5Z"/>
    <path class="st5" d="M136.6,115l2-3.8v18l-2,5.4v-19.6Z"/>
    <path class="st3" d="M138.3,4.5l1.9,5.4L47.7,106.3l-8.9,2.9L138.3,4.5Z"/>
    <path class="st2" d="M56.5,11.4l-28.5,33.3v14.1L70.4,10.3l67.9-5.7L38.7,109.2l13.1.8L124.2,35.5v70.7l-8.1,7.6,20.5,1.2v19.6l-64.1-5.4,32.6-31.7v-15.7l-46.5,46.2-55.1-4.7L92.1,26.9l-14.7.9L13.4,98.8v-60.4l6-7.3-14.8.9V15.8l51.9-4.4Z"/>
    <g>
      <path d="M176.4,70.7h22.8v14.3h-22.8v31.8h-12.3s0-76.8,0-76.8h43.2v14.3h-31v16.4h0Z"/>
      <path d="M224.3,70.7h22.8v14.3h-22.8v31.8h-12.3s0-76.8,0-76.8h43.2v14.3h-31v16.4Z"/>
      <path d="M274.2,84v32.8h-14.3v-49.7l14.3-1.5v4.6c3.2-3,7.3-4.5,12.3-4.5s11.4,2,14.9,5.9c3.8-3.9,9.4-5.9,16.9-5.9s11.4,2,14.9,5.9c3.4,3.9,5.1,8.5,5.1,13.6v31.8h-14.3v-28.2c0-3.4-.8-6.1-2.3-7.9-1.5-1.9-4-2.9-7.5-3-2.8.2-5.3,2.1-7.4,5.6-.2,1.1-.3,2.1-.3,3.2v30.2h-14.3v-28.2c0-3.4-.8-6.1-2.3-7.9-1.5-1.9-4-2.9-7.5-3-3.1.2-5.9,2.3-8.1,6.3h0Z"/>
      <path d="M345.4,138.3v-71.2l14.3-1.5v4.1c3.8-2.7,7.6-4.1,11.3-4.1,7.9,0,14.1,2.6,18.7,7.7,4.6,5.1,6.9,11.1,6.9,17.9s-2.3,12.8-6.9,17.9c-4.6,5.1-10.8,7.7-18.7,7.7-5.1-.3-8.9-1.7-11.3-4.1v25.8h-14.3ZM359.8,86.5v8.3c.7,5.7,4.3,9.1,10.8,10.1,8.2-.6,12.8-4.9,13.8-12.8-.3-9.6-5-14.5-13.8-14.9-6.5,1-10.1,4.1-10.8,9.2Z"/>
      <path d="M398.9,91.2c0-7.5,2.4-13.7,7.2-18.4,4.8-4.8,10.9-7.2,18.4-7.2s13.5,2.4,17.9,7.2c4.4,4.8,6.7,10.9,6.7,18.4v5.1h-35.3c.3,2.7,1.5,4.9,3.6,6.4s4.4,2.3,7.2,2.3c4.8,0,9.1-1.4,12.8-4.1l8.2,8.2c-3.8,5.1-10.8,7.7-21,7.7s-13.7-2.4-18.4-7.2c-4.8-4.8-7.2-10.9-7.2-18.4h0ZM431.7,79.6c-2.1-1.5-4.4-2.3-7.2-2.3s-5.1.8-7.2,2.3-3.1,3.7-3.1,6.4h20.5c0-2.7-1-4.9-3.1-6.4Z"/>
      <path d="M503.5,67.1v45.6c0,7.2-2.1,13.2-6.4,18s-9.6,7.4-16.1,7.6l-3.1.3c-9.9-.2-17.6-3-23-8.5l6.7-7.7c3.8,2.7,8.3,4.3,13.7,4.6,5.5,0,9.2-1.3,11.1-3.8,1.9-2.6,2.9-5.4,2.9-8.4v-2.6c-3.8,3.1-8.3,4.6-13.3,4.6-7.9,0-13.7-2.3-17.7-6.9s-5.9-10.8-5.9-18.7,2.1-13.7,6.4-18.4c4.3-4.8,10.3-7.2,18.2-7.2,5.8.3,9.9,1.9,12.3,4.7v-4.7l14.3,1.5ZM489.1,95.8v-8.3c-.7-5.7-4.3-9.1-10.8-10.1-8.5.3-13.1,4.6-13.8,12.8.3,9.6,5,14.5,13.8,14.9,6.5-1,10.1-4.1,10.8-9.2Z"/>
    </g>
  </g>
</svg>