<?xml version="1.0" encoding="UTF-8"?>
<svg id="svg8" xmlns="http://www.w3.org/2000/svg" xmlns:svg="http://www.w3.org/2000/svg" xmlns:sodipodi="http://sodipodi.sourceforge.net/DTD/sodipodi-0.dtd" xmlns:rdf="http://www.w3.org/1999/02/22-rdf-syntax-ns#" xmlns:inkscape="http://www.inkscape.org/namespaces/inkscape" xmlns:dc="http://purl.org/dc/elements/1.1/" xmlns:cc="http://creativecommons.org/ns#" version="1.1" viewBox="0 0 708.7 141.7">
  <!-- Generator: Adobe Illustrator 29.5.1, SVG Export Plug-In . SVG Version: 2.1.0 Build 141)  -->
  <defs>
    <style>
      .st0 {
        fill: #e31337;
        fill-rule: evenodd;
      }

      .st1 {
        fill: #fff;
      }

      .st2 {
        display: none;
      }
    </style>
  </defs>
  <sodipodi:namedview id="base" bordercolor="#666666" borderopacity="1.0" inkscape:current-layer="g995" inkscape:cx="-117.14286" inkscape:cy="560" inkscape:document-units="mm" inkscape:pageopacity="0.0" inkscape:pageshadow="2" inkscape:window-height="1023" inkscape:window-maximized="1" inkscape:window-width="1920" inkscape:window-x="0" inkscape:window-y="0" inkscape:zoom="0.35" pagecolor="#ffffff" showgrid="false"/>
  <g id="layer1" inkscape:groupmode="layer" inkscape:label="Layer 1">
    <g id="g995">
      <g id="g1043">
        <g id="g637">
          <g id="g635">
            <path id="path633" class="st0" d="M149.3,74.9v-21.8H59.8V11.4h99.8v20.8h-10.4v-10.4h-79v20.8h89.4v33.9c-.2,16.6-9.4,30.1-24.7,40.9-5.4,3.8-11.2,7-17,9.6-2,.9-4,1.7-5.7,2.3-1.1.4-1.9.7-2.3.8h-.2c0,0-.2,0-.2,0-.4-.1-1.2-.4-2.3-.8-1.7-.6-3.6-1.4-5.7-2.3-5.8-2.6-11.6-5.8-17-9.6-15.2-10.7-24.4-24.1-24.7-40.5h0v-13.5h10.4v11.4c0,12.6,6.6,23,17.8,31.6,4.2,3.2,8.7,5.9,13.5,8.2,3.1,1.5,6,2.7,8.3,3.5,2.3-.8,5.1-2,8.3-3.5,4.7-2.3,9.3-5,13.5-8.2,11.2-8.6,17.8-19.1,17.8-31.6Z" inkscape:connector-curvature="0"/>
          </g>
        </g>
        <g id="text876">
          <path id="path960" class="st1" d="M215.3,95.3V28.7h12.3v25.1c1.4-1.6,3.2-2.9,5.4-3.7,2.2-.8,4.5-1.3,6.8-1.3,3.7,0,6.9.8,9.4,2.5,2.6,1.6,4.4,3.7,5.6,6.4,1.2,2.6,1.8,5.7,1.8,9.1v28.5h-12.2v-26.4c0-2.7-.7-4.9-2.1-6.5-1.4-1.6-3.5-2.5-6.3-2.5s-4.5.8-6,2.5c-1.5,1.6-2.3,3.8-2.4,6.3v26.6h-12.3Z" inkscape:connector-curvature="0"/>
          <path id="path962" class="st1" d="M267.6,35.2c0-2.1.7-3.9,2.2-5.4,1.5-1.5,3.3-2.2,5.3-2.2s3.9.7,5.3,2.2c1.5,1.5,2.2,3.3,2.2,5.4s-.7,3.8-2.2,5.3-3.2,2.2-5.3,2.2-3.8-.7-5.3-2.2c-1.5-1.5-2.2-3.2-2.2-5.3ZM269,95.3v-45.3h12.3v45.3h-12.3Z" inkscape:connector-curvature="0"/>
          <path id="path964" class="st1" d="M288.7,50h13.4l11.2,30.4,10.8-30.4h12.9l-17.6,45.3h-12.3l-18.5-45.3Z" inkscape:connector-curvature="0"/>
          <path id="path966" class="st1" d="M339.7,72.5c0-3.5.6-6.8,1.8-9.8,1.2-3,2.9-5.5,4.9-7.5,2.1-2,4.4-3.6,7.1-4.8,2.7-1.1,5.5-1.7,8.4-1.7,7,0,12.4,2.1,16.4,6.3,4,4.2,6,9.9,6,17.2s0,1.1,0,1.7c0,.6,0,1.1,0,1.5,0,.4,0,.6,0,.6h-32.4c.1,3,1.3,5.4,3.5,7.4,2.2,1.9,4.9,2.9,7.9,2.9,5.2,0,8.6-2.3,10.3-6.9l10.2,3c-1.2,4.2-3.6,7.6-7.2,10.3-3.6,2.7-8.1,4-13.4,4s-6.1-.6-8.9-1.7-5.3-2.7-7.5-4.7c-2.1-2-3.8-4.6-5.1-7.7-1.3-3.1-1.9-6.5-1.9-10.2h0ZM352,67.5h20.3c0-2.5-1-4.6-2.7-6.3-1.7-1.7-4.2-2.6-7.5-2.6s-5.4.9-7.2,2.7c-1.8,1.8-2.8,3.9-2.9,6.2h0Z" inkscape:connector-curvature="0"/>
          <path id="path968" class="st1" d="M390,82.7l10.5-2.3c.1,1.9.9,3.6,2.3,4.9,1.4,1.3,3.4,2,5.9,2s3.4-.4,4.4-1.3c1-.9,1.6-1.9,1.6-3.2,0-2.3-1.6-3.7-4.9-4.4l-6-1.4c-4.2-.9-7.4-2.6-9.5-5-2.1-2.4-3.2-5.2-3.2-8.5s1.6-7.6,4.9-10.5c3.2-2.9,7.3-4.3,12.1-4.3s4.7.3,6.7.9c2,.6,3.7,1.4,5,2.3,1.3.9,2.4,1.9,3.3,3.1.9,1.2,1.6,2.4,2,3.5.4,1.1.7,2.2.8,3.2l-10.2,2.3c-.2-1.6-.9-3-2.2-4.2-1.2-1.2-3-1.8-5.3-1.8s-3,.4-4.1,1.3c-1.1.8-1.7,1.9-1.7,3.2s.4,2,1.1,2.7,1.8,1.2,3,1.4l6.4,1.4c4.3.9,7.7,2.6,10,5.1,2.3,2.5,3.5,5.4,3.5,8.8s-.4,3.7-1.1,5.5c-.7,1.7-1.8,3.3-3.2,4.8-1.4,1.4-3.3,2.5-5.6,3.4-2.3.9-4.8,1.3-7.7,1.3s-5-.3-7.1-1c-2.1-.6-3.9-1.4-5.3-2.4-1.3-1-2.5-2.2-3.5-3.5-1-1.3-1.7-2.5-2.1-3.7-.4-1.2-.7-2.4-.9-3.5h0Z" inkscape:connector-curvature="0"/>
          <path id="path970" class="st1" d="M434.9,35.2c0-2.1.7-3.9,2.2-5.4,1.5-1.5,3.3-2.2,5.3-2.2s3.9.7,5.3,2.2c1.5,1.5,2.2,3.3,2.2,5.4s-.7,3.8-2.2,5.3-3.2,2.2-5.3,2.2-3.8-.7-5.3-2.2c-1.5-1.5-2.2-3.2-2.2-5.3ZM436.3,95.3v-45.3h12.3v45.3h-12.3Z" inkscape:connector-curvature="0"/>
          <path id="path972" class="st1" d="M458.4,97.8l11-2.9c.4,2.5,1.6,4.6,3.5,6.2,1.9,1.6,4.3,2.4,7.1,2.4,8,0,12-4.2,12-12.6v-3.3c-1,1.6-2.6,3-4.8,4.1-2.2,1.1-4.8,1.7-7.8,1.7-6,0-11.1-2.1-15.1-6.2-4-4.2-6-9.4-6-15.8s.9-7.7,2.7-11,4.3-6,7.5-8c3.2-2,6.9-3,10.9-3s6.1.6,8.2,1.8c2.2,1.2,3.7,2.6,4.6,4.4v-5.3h11.8v40.4c0,2.5-.3,5-.9,7.2-.5,2.3-1.4,4.4-2.7,6.5-1.2,2-2.7,3.8-4.5,5.3-1.8,1.5-4,2.7-6.7,3.5-2.7.9-5.7,1.3-9,1.3-6,0-10.9-1.6-15-4.8-4-3.2-6.3-7-7-11.6h0ZM470.7,71.2c0,3.5,1,6.3,3,8.4,2,2.1,4.7,3.1,7.9,3.1s5.7-1,7.7-3.1c2-2.1,3-4.9,3-8.4s-1-6.2-3.1-8.2c-2-2.1-4.6-3.1-7.6-3.1s-5.7,1-7.8,3.1c-2.1,2.1-3.1,4.8-3.1,8.2h0Z" inkscape:connector-curvature="0"/>
          <path id="path974" class="st1" d="M516.6,95.3v-45.3h11.9v5.6c1.3-2.2,3.2-3.9,5.5-5,2.4-1.2,4.9-1.8,7.5-1.8,5.4,0,9.4,1.7,12.2,5,2.8,3.3,4.2,7.6,4.2,12.9v28.5h-12.2v-26.4c0-2.7-.7-4.9-2.1-6.5-1.4-1.6-3.5-2.5-6.3-2.5s-4.7.9-6.2,2.7c-1.5,1.8-2.2,4-2.2,6.7v26.1h-12.3Z" inkscape:connector-curvature="0"/>
          <path id="path976" class="st1" d="M567,72.5c0-3.5.6-6.8,1.8-9.8s2.9-5.5,4.9-7.5c2.1-2,4.4-3.6,7.1-4.8,2.7-1.1,5.5-1.7,8.4-1.7,7,0,12.4,2.1,16.4,6.3,4,4.2,6,9.9,6,17.2s0,1.1,0,1.7c0,.6,0,1.1,0,1.5,0,.4,0,.6,0,.6h-32.4c.1,3,1.3,5.4,3.5,7.4s4.9,2.9,7.9,2.9c5.2,0,8.6-2.3,10.3-6.9l10.2,3c-1.2,4.2-3.6,7.6-7.2,10.3-3.6,2.7-8.1,4-13.4,4s-6.1-.6-8.9-1.7-5.3-2.7-7.5-4.7c-2.1-2-3.8-4.6-5.1-7.7-1.3-3.1-1.9-6.5-1.9-10.2h0ZM579.3,67.5h20.3c0-2.5-1-4.6-2.7-6.3-1.7-1.7-4.2-2.6-7.5-2.6s-5.4.9-7.2,2.7c-1.8,1.8-2.8,3.9-2.9,6.2h0Z" inkscape:connector-curvature="0"/>
          <path id="path978" class="st1" d="M621.2,95.3v-45.3h11.9v6.7c.7-1.4,1.5-2.6,2.6-3.6,1.1-1,2.2-1.8,3.5-2.2,1.3-.5,2.4-.8,3.5-1,1.1-.2,2.2-.3,3.3-.3s1.7,0,2.9.2v12.4c-1.2-.2-2.5-.4-3.7-.4s-3.1.2-4.5.7c-1.3.4-2.5,1.1-3.7,2.1-1.1.9-2,2.2-2.6,4-.6,1.7-.9,3.7-.9,6.1v20.7h-12.3Z" inkscape:connector-curvature="0"/>
        </g>
      </g>
    </g>
    <g id="flowRoot935" class="st2">
      <g id="flowRegion937">
        <rect id="rect939" x="-72.9" y="-231.1" width="904.3" height="495"/>
      </g>
    </g>
  </g>
</svg>